<svg xmlns="http://www.w3.org/2000/svg" version="1.1" xmlns:xlink="http://www.w3.org/1999/xlink" xmlns:svgjs="http://svgjs.dev/svgjs" width="2000" height="767" viewBox="0 0 2000 767"><g transform="matrix(1,0,0,1,-1.2094453604761384,-0.1341057660254137)"><svg viewBox="0 0 396 152" data-background-color="#efe1c6" preserveAspectRatio="xMidYMid meet" height="767" width="2000" xmlns="http://www.w3.org/2000/svg" xmlns:xlink="http://www.w3.org/1999/xlink"><g id="tight-bounds" transform="matrix(1,0,0,1,0.239813847509879,0.02657637084206499)"><svg viewBox="0 0 395.52 151.94666110589128" height="151.94666110589128" width="395.52"><g><svg viewBox="0 0 395.52 151.94666110589128" height="151.94666110589128" width="395.52"><g transform="matrix(1,0,0,1,0,78.39331320365815)"><svg viewBox="0 0 395.52 73.55334790223313" height="73.55334790223313" width="395.52"><g id="textblocktransform"><svg viewBox="0 0 395.52 73.55334790223313" height="73.55334790223313" width="395.52" id="textblock"><g><svg viewBox="0 0 395.52 73.55334790223313" height="73.55334790223313" width="395.52"><g transform="matrix(1,0,0,1,0,0)"><svg width="395.52" viewBox="-1.2457600000000078 -19.50829 276.21226 51.36616000000001" height="73.55334790223313" data-palette-color="#2196f3"><path d="M5.507-18.773l25.707 5.786-2.24 9.951c-1.626-0.366-2.907-0.928-3.844-1.685-0.943-0.759-1.662-1.587-2.157-2.484-0.502-0.899-0.823-1.791-0.966-2.678-0.142-0.886-0.212-1.637-0.21-2.251v0l-4.391-0.988-2.437 10.829 8.536 1.922-0.637 2.829-8.536-1.922-2.405 10.683 5.122 1.153c0.262-0.556 0.647-1.204 1.155-1.944 0.508-0.74 1.172-1.41 1.991-2.012 0.819-0.602 1.825-1.051 3.02-1.35 1.193-0.292 2.603-0.255 4.229 0.112v0l-2.251 10-26.439-5.952 0.637-2.829 4.341 0.977 5.48-24.341-4.342-0.977zM32.061-1.794l0.427-2.514 10.007 1.697 3.718 7.68 3.644-3.844-2.958-0.502 0.427-2.514 9.268 1.572-0.427 2.514-2.958-0.502-5.672 5.935 6.595 13.442-0.159 0.937-8.824-1.497-4.477-9.482-4.66 5.346 3.106 0.527-0.427 2.514-9.613-1.631 0.427-2.514 3.155 0.535 6.663-7.592-4.55-9.647zM58.285 3.448l0.302-2.482 2.928 0.356 7.67-0.528-0.38 3.127c1.068-0.777 2.213-1.353 3.433-1.728 1.22-0.369 2.475-0.475 3.766-0.318v0c1.357 0.165 2.539 0.517 3.549 1.057 1.008 0.546 1.814 1.315 2.419 2.309 0.597 0.999 0.988 2.256 1.173 3.769 0.184 1.52 0.15 3.322-0.104 5.407v0c-0.258 2.118-0.674 3.887-1.25 5.308-0.577 1.427-1.383 2.538-2.42 3.332-1.038 0.801-2.315 1.31-3.832 1.528-1.524 0.218-3.345 0.198-5.463-0.06v0c-0.596-0.072-1.171-0.176-1.725-0.31-0.554-0.135-1.092-0.267-1.614-0.398v0l-0.978 8.041-10.77-1.31 0.308-2.531 2.928 0.356 2.988-24.569zM75.083 4.483v0c-1.092-0.133-2.193 0.086-3.304 0.656-1.11 0.57-2.125 1.32-3.044 2.249v0l-1.708 14.047c0.542 0.234 1.107 0.42 1.695 0.558 0.588 0.139 1.13 0.238 1.626 0.299v0c0.794 0.097 1.429 0.123 1.904 0.08v0c0.269-0.001 0.49-0.024 0.663-0.07v0c0.258-0.741 0.51-1.567 0.755-2.477v0c0.196-0.782 0.411-1.723 0.645-2.823 0.234-1.093 0.429-2.285 0.586-3.575v0c0.193-1.588 0.308-2.944 0.344-4.068 0.035-1.117 0.047-2.046 0.037-2.786v0c-0.028-0.876-0.094-1.573-0.199-2.09zM86.961 6.3l0.201-2.492 2.94 0.237 7.971-0.561-1.665 20.633 2.941 0.238-0.205 2.541-13.756-1.11 0.205-2.541 2.941 0.237 1.367-16.945zM90.729-3.73v0c0.113-1.395 0.496-2.411 1.149-3.047 0.653-0.63 1.693-0.887 3.122-0.772v0c1.495 0.121 2.498 0.543 3.008 1.266 0.51 0.73 0.708 1.793 0.596 3.189v0c-0.115 1.429-0.505 2.441-1.168 3.036-0.671 0.601-1.704 0.846-3.099 0.733v0c-1.429-0.115-2.416-0.523-2.961-1.222-0.546-0.693-0.761-1.754-0.647-3.183zM101.994 24.117l4.448 0.161 0.903-24.934-4.447-0.161 0.105-2.898 11.492 0.417c0.6 0.022 1.26 0.029 1.981 0.021 0.714-0.007 1.154-0.008 1.321-0.002v0c4.33 0.157 7.486 0.972 9.468 2.445 1.981 1.473 2.921 3.625 2.818 6.456v0c-0.071 1.965-0.601 3.504-1.589 4.615-0.994 1.118-2.218 1.934-3.671 2.449v0l8.234 14.408-0.038 1.049-9.194-0.333-7.738-14.29-0.849-0.031-0.402 11.093 3.448 0.125-0.105 2.898-16.29-0.59zM117.705-0.731v0c-0.7-0.025-1.351 0.001-1.955 0.08v0l-0.431 11.892 5.147 0.186c0.088-0.597 0.178-1.228 0.269-1.891v0c0.087-0.564 0.17-1.205 0.25-1.922 0.072-0.711 0.123-1.45 0.15-2.216v0c0.028-0.766 0.014-1.5-0.04-2.203-0.061-0.703-0.132-1.322-0.213-1.859v0c-0.112-0.604-0.207-1.192-0.287-1.762v0c-0.232-0.042-0.514-0.085-0.845-0.13v0c-0.265-0.043-0.581-0.081-0.947-0.115-0.366-0.027-0.732-0.047-1.098-0.06zM145.993 5.164v0c1.833-0.021 3.352 0.135 4.555 0.468 1.204 0.34 2.177 0.889 2.919 1.647 0.742 0.758 1.27 1.759 1.584 3.002 0.314 1.25 0.482 2.791 0.503 4.625v0c0.006 0.567-0.005 1.057-0.034 1.47-0.029 0.42-0.058 0.764-0.088 1.031v0c-0.03 0.334-0.06 0.584-0.091 0.752v0l-12.35 0.14c0.046 1.133 0.124 2.155 0.235 3.067 0.11 0.919 0.219 1.711 0.327 2.377v0c0.142 0.798 0.284 1.497 0.424 2.095v0c0.101 0.066 0.251 0.114 0.452 0.145v0c0.167 0.031 0.411 0.052 0.73 0.062 0.314 0.016 0.72 0.022 1.221 0.016v0c0.833-0.009 1.626-0.078 2.378-0.207 0.745-0.122 1.4-0.319 1.963-0.593 0.564-0.273 1.003-0.655 1.317-1.145 0.308-0.484 0.458-1.075 0.45-1.775v0l2.7-0.03c0.016 1.4-0.278 2.503-0.883 3.31-0.611 0.807-1.371 1.422-2.279 1.846-0.915 0.43-1.905 0.702-2.971 0.813-1.065 0.112-2.065 0.173-2.998 0.185v0c-2.033 0.023-3.759-0.167-5.177-0.572-1.425-0.397-2.582-1.051-3.472-1.96-0.897-0.903-1.554-2.096-1.971-3.578-0.417-1.475-0.637-3.28-0.662-5.413v0c-0.024-2.133 0.132-3.945 0.469-5.436 0.33-1.484 0.923-2.691 1.779-3.62 0.856-0.923 2.009-1.603 3.457-2.04 1.442-0.43 3.279-0.657 5.513-0.682zM143.772 7.739v0c-0.158 0.735-0.299 1.537-0.423 2.405v0c-0.091 0.768-0.181 1.659-0.27 2.673-0.088 1.021-0.126 2.132-0.112 3.332v0l4.85-0.055c-0.083-1.399-0.18-2.625-0.292-3.677-0.112-1.045-0.238-1.917-0.38-2.616v0c-0.143-0.832-0.301-1.53-0.474-2.095v0c-0.1-0.032-0.218-0.081-0.351-0.146v0c-0.134-0.032-0.291-0.063-0.471-0.094-0.187-0.031-0.397-0.045-0.631-0.043v0c-0.233 0.003-0.433 0.022-0.599 0.056-0.166 0.035-0.316 0.07-0.449 0.106v0c-0.133 0.068-0.265 0.12-0.398 0.154zM158.256 8.623l-0.179-2.494 2.942-0.212 7.426-1.988 0.241 3.341c0.119-0.209 0.341-0.509 0.667-0.9 0.319-0.391 0.75-0.773 1.291-1.146 0.541-0.373 1.212-0.716 2.011-1.027 0.794-0.304 1.739-0.496 2.836-0.575v0c0.632-0.045 1.284-0.042 1.956 0.009 0.672 0.052 1.309 0.173 1.911 0.364 0.595 0.191 1.14 0.469 1.634 0.835 0.494 0.365 0.864 0.857 1.109 1.474v0c0.09-0.14 0.272-0.397 0.546-0.771 0.274-0.367 0.674-0.754 1.2-1.16 0.519-0.405 1.184-0.77 1.996-1.096 0.812-0.326 1.8-0.531 2.964-0.614v0c0.765-0.055 1.544-0.044 2.338 0.032 0.788 0.077 1.52 0.265 2.196 0.563 0.67 0.306 1.227 0.744 1.669 1.314 0.442 0.57 0.698 1.337 0.767 2.301v0l1.118 15.51 2.942-0.212 0.183 2.543-10.822 0.78-1.415-19.65-0.153-0.039c-0.069-0.028-0.171-0.048-0.305-0.058-0.134-0.004-0.334 0.004-0.6 0.023v0c-0.565 0.041-1.076 0.228-1.534 0.562-0.464 0.334-0.872 0.704-1.223 1.111-0.358 0.413-0.656 0.819-0.895 1.217-0.238 0.405-0.401 0.694-0.489 0.868v0l0.995 13.814 2.942-0.212 0.184 2.543-10.822 0.78-1.416-19.649-0.153-0.04c-0.069-0.028-0.171-0.048-0.305-0.058-0.134-0.004-0.334 0.004-0.6 0.023v0c-0.565 0.041-1.076 0.228-1.533 0.562-0.464 0.334-0.872 0.704-1.224 1.111-0.358 0.413-0.656 0.819-0.894 1.217-0.238 0.405-0.401 0.694-0.489 0.868v0l0.995 13.814 2.942-0.212 0.183 2.543-13.764 0.992-0.183-2.544 2.942-0.212-1.185-16.457zM200.407 4.933l-0.309-2.481 2.927-0.365 7.691-2.168 2.561 20.541 2.927-0.365 0.316 2.53-13.694 1.708-0.316-2.531 2.928-0.365-2.104-16.869zM202.06-5.653v0c-0.173-1.389-0.005-2.462 0.506-3.217 0.511-0.749 1.478-1.212 2.9-1.39v0c1.488-0.186 2.556 0.024 3.203 0.629 0.647 0.611 1.058 1.612 1.23 3.001v0c0.177 1.422 0.002 2.492-0.527 3.21-0.534 0.725-1.496 1.174-2.885 1.347v0c-1.422 0.177-2.472-0.021-3.148-0.595-0.675-0.567-1.102-1.562-1.279-2.985zM216.31 3.362l-0.412-2.466 2.91-0.486 7.208-2.674 0.577 3.453c0.049-0.11 0.192-0.37 0.427-0.782 0.236-0.411 0.617-0.857 1.145-1.336 0.529-0.474 1.246-0.938 2.15-1.394 0.904-0.455 2.047-0.798 3.428-1.028v0c0.756-0.126 1.533-0.188 2.331-0.187 0.791 0.003 1.538 0.122 2.239 0.356 0.696 0.242 1.291 0.626 1.784 1.152 0.493 0.526 0.82 1.266 0.979 2.219v0l2.561 15.338 2.91-0.486 0.42 2.515-10.702 1.787-3.245-19.431c-0.066 0.011-0.167 0.011-0.304 0.001v0c-0.274-0.022-0.641 0.006-1.101 0.082v0c-0.69 0.115-1.282 0.356-1.776 0.722-0.499 0.374-0.915 0.775-1.249 1.202-0.334 0.428-0.592 0.849-0.772 1.265-0.186 0.423-0.312 0.742-0.378 0.955v0l2.29 13.71 2.909-0.485 0.42 2.515-13.611 2.273-0.42-2.516 2.909-0.485-2.717-16.275zM255.756-13.316l-0.538-2.441 2.881-0.635 7.403-3.116 6.392 29.004 0.635-0.14c0.293-0.065 0.582-0.145 0.868-0.243v0l1.053-0.334 0.517 2.344c-0.564 0.227-1.116 0.434-1.656 0.62v0c-0.441 0.166-0.919 0.322-1.432 0.47-0.514 0.147-0.933 0.257-1.259 0.328v0c-1.595 0.352-2.864 0.324-3.807-0.082-0.943-0.407-1.669-0.912-2.178-1.517v0c-0.736 1.152-1.639 2.119-2.709 2.901-1.077 0.783-2.266 1.319-3.568 1.606v0c-1.335 0.294-2.568 0.351-3.7 0.17-1.131-0.174-2.143-0.634-3.038-1.379-0.9-0.737-1.689-1.792-2.366-3.164-0.677-1.366-1.241-3.075-1.693-5.126v0c-0.459-2.083-0.653-3.894-0.583-5.432 0.072-1.531 0.465-2.847 1.178-3.946 0.715-1.093 1.745-1.992 3.092-2.699 1.346-0.706 3.077-1.293 5.193-1.759v0c0.586-0.129 1.163-0.222 1.731-0.279v0l1.703-0.17-1.238-5.616zM258.363 12.683v0c1.074-0.237 2.05-0.81 2.928-1.721 0.871-0.909 1.583-1.97 2.135-3.184v0l-3.024-13.721c-0.589-0.041-1.193-0.038-1.81 0.01-0.623 0.055-1.178 0.137-1.667 0.245v0c-0.423 0.093-0.778 0.188-1.063 0.285-0.286 0.097-0.539 0.187-0.76 0.27v0c-0.246 0.122-0.447 0.218-0.602 0.286v0c0.009 0.817 0.049 1.696 0.12 2.636v0c0.042 0.81 0.142 1.761 0.301 2.852 0.152 1.093 0.368 2.274 0.648 3.544v0c0.344 1.563 0.679 2.878 1.003 3.947 0.319 1.077 0.623 1.959 0.91 2.646v0c0.317 0.818 0.61 1.453 0.881 1.905z" opacity="1" transform="matrix(1,0,0,1,0,0)" fill="#2196f3" class="wordmark-text-0" data-fill-palette-color="primary" id="text-0"></path></svg></g></svg></g></svg></g></svg></g><g transform="matrix(1,0,0,1,156.39939902210114,0)"><svg viewBox="0 0 82.72120195579771 73.55334790223313" height="73.55334790223313" width="82.72120195579771"><g><svg xmlns="http://www.w3.org/2000/svg" xmlns:xlink="http://www.w3.org/1999/xlink" version="1.1" x="0" y="0" viewBox="1.666 0 87.23400000000001 77.566" enable-background="new 0 0 90 77.746" xml:space="preserve" id="icon-0" width="82.72120195579771" height="73.55334790223313" class="icon-icon-0" data-fill-palette-color="accent"><g fill="#2196f3" data-fill-palette-color="accent"><polygon fill="#2196f3" points="33.573,39.813 21.629,53.716 28.104,59.278 42.106,42.976 42.106,20.06 33.573,20.06  " data-fill-palette-color="accent"></polygon><path fill="#2196f3" d="M37.838 69.033C22.597 69.033 10.199 56.632 10.199 41.391 10.199 26.153 22.597 13.755 37.838 13.755 41.643 13.755 45.266 14.527 48.566 15.922L52.84 8.525C48.263 6.424 43.194 5.225 37.838 5.225 17.892 5.225 1.666 21.445 1.666 41.391 1.666 61.34 17.892 77.566 37.838 77.566 56.424 77.566 71.764 63.473 73.772 45.409H65.149C63.193 58.748 51.713 69.033 37.838 69.033" data-fill-palette-color="accent"></path><path fill="#2196f3" d="M88.9 36.876L67.609 0 46.317 36.876zM65.574 12.773H69.838V24.078H65.574zM69.838 28.346V32.611H65.574V28.346z" data-fill-palette-color="accent"></path></g></svg></g></svg></g><g></g></svg></g><defs></defs></svg><rect width="395.52" height="151.94666110589128" fill="none" stroke="none" visibility="hidden"></rect></g></svg></g></svg>