<svg xmlns="http://www.w3.org/2000/svg" version="1.1" xmlns:xlink="http://www.w3.org/1999/xlink" xmlns:svgjs="http://svgjs.dev/svgjs" width="128" height="128" viewBox="0 0 128 128"><g transform="matrix(0.8046875,0,0,0.8046875,12.221578124999994,18.481132582227495)"><svg viewBox="0 0 96 85" data-background-color="#efe1c6" preserveAspectRatio="xMidYMid meet" height="113" width="128" xmlns="http://www.w3.org/2000/svg" xmlns:xlink="http://www.w3.org/1999/xlink"><g id="tight-bounds" transform="matrix(1,0,0,1,0.25950000000000273,0.05050068780521144)"><svg viewBox="0 0 95.481 84.89899862438956" height="84.89899862438956" width="95.481"><g><svg viewBox="0 0 95.481 84.89899862438956" height="84.89899862438956" width="95.481"><g><svg viewBox="0 0 95.481 84.89899862438956" height="84.89899862438956" width="95.481"><g id="textblocktransform"><svg viewBox="0 0 95.481 84.89899862438956" height="84.89899862438956" width="95.481" id="textblock"><g><svg viewBox="0 0 95.481 84.89899862438956" height="84.89899862438956" width="95.481"><g><svg viewBox="0 0 95.481 84.89899862438956" height="84.89899862438956" width="95.481"><g><svg xmlns="http://www.w3.org/2000/svg" xmlns:xlink="http://www.w3.org/1999/xlink" version="1.1" x="0" y="0" viewBox="1.666 0 87.23400000000001 77.566" enable-background="new 0 0 90 77.746" xml:space="preserve" id="icon-0" width="95.481" height="84.89899862438956" class="icon-icon-0" data-fill-palette-color="accent"><g fill="#2196f3" data-fill-palette-color="accent"><polygon fill="#2196f3" points="33.573,39.813 21.629,53.716 28.104,59.278 42.106,42.976 42.106,20.06 33.573,20.06  " data-fill-palette-color="accent"></polygon><path fill="#2196f3" d="M37.838 69.033C22.597 69.033 10.199 56.632 10.199 41.391 10.199 26.153 22.597 13.755 37.838 13.755 41.643 13.755 45.266 14.527 48.566 15.922L52.84 8.525C48.263 6.424 43.194 5.225 37.838 5.225 17.892 5.225 1.666 21.445 1.666 41.391 1.666 61.34 17.892 77.566 37.838 77.566 56.424 77.566 71.764 63.473 73.772 45.409H65.149C63.193 58.748 51.713 69.033 37.838 69.033" data-fill-palette-color="accent"></path><path fill="#2196f3" d="M88.9 36.876L67.609 0 46.317 36.876zM65.574 12.773H69.838V24.078H65.574zM69.838 28.346V32.611H65.574V28.346z" data-fill-palette-color="accent"></path></g></svg></g></svg></g></svg></g></svg></g></svg></g><g></g></svg></g><defs></defs></svg><rect width="95.481" height="84.89899862438956" fill="none" stroke="none" visibility="hidden"></rect></g></svg></g></svg>